<svg width="594.2600219726562px" height="120.8px" xmlns="http://www.w3.org/2000/svg" viewBox="-47.1300109863281 14.600000000000001 594.2600219726562 120.8" style="background: rgba(0, 0, 0, 0);" preserveAspectRatio="xMidYMid"><defs><filter id="editing-extrusion" x="-100%" y="-100%" width="300%" height="300%"><feFlood result="color1" flood-color="#444"></feFlood><feConvolveMatrix order="8,8" divisor="1" kernelMatrix="1 0 0 0 0 0 0 0 0 1 0 0 0 0 0 0 0 0 1 0 0 0 0 0 0 0 0 1 0 0 0 0 0 0 0 0 1 0 0 0 0 0 0 0 0 1 0 0 0 0 0 0 0 0 1 0 0 0 0 0 0 0 0 1" in="SourceAlpha" result="extrude"></feConvolveMatrix><feComposite in="color1" in2="extrude" result="comp-extrude" operator="in"></feComposite><feOffset dx="4" dy="4" in="comp-extrude" result="offset-extrude"></feOffset><feMerge><feMergeNode in="offset-extrude"></feMergeNode><feMergeNode in="SourceGraphic"></feMergeNode></feMerge></filter></defs><g filter="url(#editing-extrusion)"><g transform="translate(39.250025033950806, 99)"><path d="M28.42-9.86L28.42-9.86L28.42-9.86Q29.63-8.32 29.63-5.82L29.63-5.82L29.63-5.82Q29.63-2.37 27.07-0.54L27.07-0.54L27.07-0.54Q24.51 1.28 20.48 1.28L20.48 1.28L20.48 1.28Q18.18 1.28 14.66 0.77L14.66 0.77L14.66 0.77Q7.74-0.32 5.63-0.32L5.63-0.32L5.63-0.32Q3.52-0.32 2.69-0.22L2.69-0.22L2.69-0.22Q1.86-0.13 0.51 0L0.51 0L8.38-42.24L35.97-42.24L35.97-42.24Q35.97-38.34 34.08-36.29L34.08-36.29L34.08-36.29Q32.19-34.24 28.48-34.24L28.48-34.24L28.48-34.24Q24.77-34.24 20.99-35.97L20.99-35.97L19.01-24.77L30.40-24.77L30.40-24.77Q30.40-21.38 28.74-19.49L28.74-19.49L28.74-19.49Q27.07-17.60 24.29-17.60L24.29-17.60L24.29-17.60Q21.50-17.60 19.78-18.24L19.78-18.24L19.78-18.24Q18.05-18.88 17.86-19.07L17.86-19.07L15.55-6.98L15.55-6.98Q17.09-6.78 19.97-6.78L19.97-6.78L19.97-6.78Q24.90-6.78 28.42-9.86ZM50.82-3.52L50.82-3.52L50.82-3.52Q48.83 1.28 42.50 1.28L42.50 1.28L42.50 1.28Q39.30 1.28 37.25-0.96L37.25-0.96L37.25-0.96Q35.58-2.82 35.58-4.93L35.58-4.93L35.58-4.93Q35.58-9.73 37.82-20.22L37.82-20.22L42.50-44.80L55.49-46.08L49.28-13.70L49.28-13.70Q48.19-8.96 48.19-7.30L48.19-7.30L48.19-7.30Q48.19-3.65 50.82-3.52ZM71.62-3.52L71.62-3.52L71.62-3.52Q69.63 1.28 63.30 1.28L63.30 1.28L63.30 1.28Q60.03 1.28 57.98-0.96L57.98-0.96L57.98-0.96Q56.26-2.94 56.26-4.93L56.26-4.93L56.26-4.93Q56.26-10.11 58.62-20.22L58.62-20.22L60.99-32.64L73.98-33.92L70.08-13.70L70.08-13.70Q68.99-8.96 68.99-7.30L68.99-7.30L68.99-7.30Q68.99-3.65 71.62-3.52ZM62.14-41.54L62.14-41.54L62.14-41.54Q62.14-44.03 64.22-45.38L64.22-45.38L64.22-45.38Q66.30-46.72 69.31-46.72L69.31-46.72L69.31-46.72Q72.32-46.72 74.14-45.38L74.14-45.38L74.14-45.38Q75.97-44.03 75.97-41.54L75.97-41.54L75.97-41.54Q75.97-39.04 73.95-37.76L73.95-37.76L73.95-37.76Q71.94-36.48 68.93-36.48L68.93-36.48L68.93-36.48Q65.92-36.48 64.03-37.76L64.03-37.76L64.03-37.76Q62.14-39.04 62.14-41.54ZM78.08-6.40L78.08-6.40L78.08-6.40Q78.08-8.13 78.98-12.48L78.98-12.48L82.37-29.76L78.59-29.76L78.85-31.68L78.85-31.68Q86.53-33.98 93.95-39.62L93.95-39.62L97.02-39.62L95.49-32.64L100.48-32.64L99.90-29.76L94.98-29.76L91.71-12.48L91.71-12.48Q90.88-8.51 90.88-7.17L90.88-7.17L90.88-7.17Q90.88-4.10 93.57-3.46L93.57-3.46L93.57-3.46Q92.93-1.28 90.62 0L90.62 0L90.62 0Q88.32 1.28 85.06 1.28L85.06 1.28L85.06 1.28Q81.79 1.28 79.94-0.77L79.94-0.77L79.94-0.77Q78.08-2.82 78.08-6.40ZM125.82-10.82L125.82-10.82L125.82-10.82Q127.42-9.73 127.42-7.33L127.42-7.33L127.42-7.33Q127.42-4.93 126.21-3.39L126.21-3.39L126.21-3.39Q124.99-1.86 123.01-0.83L123.01-0.83L123.01-0.83Q118.91 1.28 114.50 1.28L114.50 1.28L114.50 1.28Q110.08 1.28 107.49 0.32L107.49 0.32L107.49 0.32Q104.90-0.64 103.17-2.43L103.17-2.43L103.17-2.43Q99.78-5.82 99.78-12.03L99.78-12.03L99.78-12.03Q99.78-21.70 105.02-27.58L105.02-27.58L105.02-27.58Q110.66-33.92 120.45-33.92L120.45-33.92L120.45-33.92Q126.53-33.92 129.54-31.36L129.54-31.36L129.54-31.36Q131.78-29.44 131.78-26.30L131.78-26.30L131.78-26.30Q131.78-15.04 112.32-15.04L112.32-15.04L112.32-15.04Q112.06-13.38 112.06-11.97L112.06-11.97L112.06-11.97Q112.06-9.02 113.38-7.90L113.38-7.90L113.38-7.90Q114.69-6.78 117.12-6.78L117.12-6.78L117.12-6.78Q119.55-6.78 122.14-7.90L122.14-7.90L122.14-7.90Q124.74-9.02 125.82-10.82ZM112.77-17.79L112.77-17.79L112.77-17.79Q117.31-17.79 119.94-20.61L119.94-20.61L119.94-20.61Q122.56-23.30 122.56-27.58L122.56-27.58L122.56-27.58Q122.56-29.06 122.02-29.86L122.02-29.86L122.02-29.86Q121.47-30.66 120.38-30.66L120.38-30.66L120.38-30.66Q119.30-30.66 118.37-30.24L118.37-30.24L118.37-30.24Q117.44-29.82 116.48-28.42L116.48-28.42L116.48-28.42Q114.11-25.22 112.77-17.79ZM174.46-9.86L174.46-9.86L174.46-9.86Q175.68-8.32 175.68-5.82L175.68-5.82L175.68-5.82Q175.68-2.37 173.12-0.54L173.12-0.54L173.12-0.54Q170.56 1.28 166.53 1.28L166.53 1.28L166.53 1.28Q164.22 1.28 160.70 0.77L160.70 0.77L160.70 0.77Q153.79-0.32 151.68-0.32L151.68-0.32L151.68-0.32Q149.57-0.32 148.74-0.22L148.74-0.22L148.74-0.22Q147.90-0.13 146.56 0L146.56 0L154.43-42.24L182.02-42.24L182.02-42.24Q182.02-38.34 180.13-36.29L180.13-36.29L180.13-36.29Q178.24-34.24 174.53-34.24L174.53-34.24L174.53-34.24Q170.82-34.24 167.04-35.97L167.04-35.97L165.06-24.77L176.45-24.77L176.45-24.77Q176.45-21.38 174.78-19.49L174.78-19.49L174.78-19.49Q173.12-17.60 170.34-17.60L170.34-17.60L170.34-17.60Q167.55-17.60 165.82-18.24L165.82-18.24L165.82-18.24Q164.10-18.88 163.90-19.07L163.90-19.07L161.60-6.98L161.60-6.98Q163.14-6.78 166.02-6.78L166.02-6.78L166.02-6.78Q170.94-6.78 174.46-9.86ZM200.70-22.46L200.70-22.46L200.70-22.46Q201.60-24.83 201.60-26.88L201.60-26.88L201.60-26.88Q201.60-30.66 198.53-30.66L198.53-30.66L198.53-30.66Q196.93-30.66 195.62-29.22L195.62-29.22L195.62-29.22Q194.30-27.78 194.30-25.98L194.30-25.98L194.30-25.98Q194.30-24.70 195.33-23.68L195.33-23.68L195.33-23.68Q196.80-22.27 200.58-19.97L200.58-19.97L200.58-19.97Q204.35-17.66 205.79-15.78L205.79-15.78L205.79-15.78Q207.23-13.89 207.23-11.30L207.23-11.30L207.23-11.30Q207.23-8.70 205.98-6.34L205.98-6.34L205.98-6.34Q204.74-3.97 202.50-2.30L202.50-2.30L202.50-2.30Q197.70 1.28 190.02 1.28L190.02 1.28L190.02 1.28Q185.86 1.28 182.66-0.90L182.66-0.90L182.66-0.90Q179.46-3.01 179.46-5.50L179.46-5.50L179.46-5.50Q179.46-8 181.28-9.47L181.28-9.47L181.28-9.47Q183.10-10.94 185.79-10.94L185.79-10.94L185.79-10.94Q188.48-10.94 190.14-9.92L190.14-9.92L190.14-9.92Q189.31-7.81 189.31-6.40L189.31-6.40L189.31-6.40Q189.31-2.18 192.90-2.18L192.90-2.18L192.90-2.18Q194.43-2.18 195.46-3.14L195.46-3.14L195.46-3.14Q196.48-4.10 196.48-5.76L196.48-5.76L196.48-5.76Q196.48-9.02 190.98-12.48L190.98-12.48L190.98-12.48Q186.50-15.42 185.47-16.58L185.47-16.58L185.47-16.58Q183.74-18.62 183.74-21.18L183.74-21.18L183.74-21.18Q183.74-23.74 184.96-26.18L184.96-26.18L184.96-26.18Q186.18-28.61 188.42-30.34L188.42-30.34L188.42-30.34Q193.09-33.92 201.22-33.92L201.22-33.92L201.22-33.92Q205.38-33.92 207.84-32.26L207.84-32.26L207.84-32.26Q210.30-30.59 210.30-27.78L210.30-27.78L210.30-27.78Q210.30-24.96 208.61-23.36L208.61-23.36L208.61-23.36Q206.91-21.76 203.84-21.76L203.84-21.76L203.84-21.76Q201.73-21.76 200.70-22.46ZM213.70-6.40L213.70-6.40L213.70-6.40Q213.70-8.13 214.59-12.48L214.59-12.48L217.98-29.76L214.21-29.76L214.46-31.68L214.46-31.68Q222.14-33.98 229.57-39.62L229.57-39.62L232.64-39.62L231.10-32.64L236.10-32.64L235.52-29.76L230.59-29.76L227.33-12.48L227.33-12.48Q226.50-8.51 226.50-7.17L226.50-7.17L226.50-7.17Q226.50-4.10 229.18-3.46L229.18-3.46L229.18-3.46Q228.54-1.28 226.24 0L226.24 0L226.24 0Q223.94 1.28 220.67 1.28L220.67 1.28L220.67 1.28Q217.41 1.28 215.55-0.77L215.55-0.77L215.55-0.77Q213.70-2.82 213.70-6.40ZM251.14-3.52L251.14-3.52L251.14-3.52Q249.15 1.28 242.82 1.28L242.82 1.28L242.82 1.28Q239.55 1.28 237.50-0.96L237.50-0.96L237.50-0.96Q235.78-2.94 235.78-4.93L235.78-4.93L235.78-4.93Q235.78-10.11 238.14-20.22L238.14-20.22L240.51-32.64L253.50-33.92L249.60-13.70L249.60-13.70Q248.51-8.96 248.51-7.30L248.51-7.30L248.51-7.30Q248.51-3.65 251.14-3.52ZM241.66-41.54L241.66-41.54L241.66-41.54Q241.66-44.03 243.74-45.38L243.74-45.38L243.74-45.38Q245.82-46.72 248.83-46.72L248.83-46.72L248.83-46.72Q251.84-46.72 253.66-45.38L253.66-45.38L253.66-45.38Q255.49-44.03 255.49-41.54L255.49-41.54L255.49-41.54Q255.49-39.04 253.47-37.76L253.47-37.76L253.47-37.76Q251.46-36.48 248.45-36.48L248.45-36.48L248.45-36.48Q245.44-36.48 243.55-37.76L243.55-37.76L243.55-37.76Q241.66-39.04 241.66-41.54ZM271.87-3.52L271.87-3.52L271.87-3.52Q269.89 1.28 263.55 1.28L263.55 1.28L263.55 1.28Q260.35 1.28 258.30-0.96L258.30-0.96L258.30-0.96Q256.64-2.82 256.64-4.93L256.64-4.93L256.64-4.93Q256.64-9.73 258.88-20.22L258.88-20.22L263.55-44.80L276.54-46.08L270.34-13.70L270.34-13.70Q269.25-8.96 269.25-7.30L269.25-7.30L269.25-7.30Q269.25-3.65 271.87-3.52ZM292.67-3.52L292.67-3.52L292.67-3.52Q290.69 1.28 284.35 1.28L284.35 1.28L284.35 1.28Q281.09 1.28 279.04-0.96L279.04-0.96L279.04-0.96Q277.31-2.94 277.31-4.93L277.31-4.93L277.31-4.93Q277.31-10.11 279.68-20.22L279.68-20.22L282.05-32.64L295.04-33.92L291.14-13.70L291.14-13.70Q290.05-8.96 290.05-7.30L290.05-7.30L290.05-7.30Q290.05-3.65 292.67-3.52ZM283.20-41.54L283.20-41.54L283.20-41.54Q283.20-44.03 285.28-45.38L285.28-45.38L285.28-45.38Q287.36-46.72 290.37-46.72L290.37-46.72L290.37-46.72Q293.38-46.72 295.20-45.38L295.20-45.38L295.20-45.38Q297.02-44.03 297.02-41.54L297.02-41.54L297.02-41.54Q297.02-39.04 295.01-37.76L295.01-37.76L295.01-37.76Q292.99-36.48 289.98-36.48L289.98-36.48L289.98-36.48Q286.98-36.48 285.09-37.76L285.09-37.76L285.09-37.76Q283.20-39.04 283.20-41.54ZM317.25-22.46L317.25-22.46L317.25-22.46Q318.14-24.83 318.14-26.88L318.14-26.88L318.14-26.88Q318.14-30.66 315.07-30.66L315.07-30.66L315.07-30.66Q313.47-30.66 312.16-29.22L312.16-29.22L312.16-29.22Q310.85-27.78 310.85-25.98L310.85-25.98L310.85-25.98Q310.85-24.70 311.87-23.68L311.87-23.68L311.87-23.68Q313.34-22.27 317.12-19.97L317.12-19.97L317.12-19.97Q320.90-17.66 322.34-15.78L322.34-15.78L322.34-15.78Q323.78-13.89 323.78-11.30L323.78-11.30L323.78-11.30Q323.78-8.70 322.53-6.34L322.53-6.34L322.53-6.34Q321.28-3.97 319.04-2.30L319.04-2.30L319.04-2.30Q314.24 1.28 306.56 1.28L306.56 1.28L306.56 1.28Q302.40 1.28 299.20-0.90L299.20-0.90L299.20-0.90Q296-3.01 296-5.50L296-5.50L296-5.50Q296-8 297.82-9.47L297.82-9.47L297.82-9.47Q299.65-10.94 302.34-10.94L302.34-10.94L302.34-10.94Q305.02-10.94 306.69-9.92L306.69-9.92L306.69-9.92Q305.86-7.81 305.86-6.40L305.86-6.40L305.86-6.40Q305.86-2.18 309.44-2.18L309.44-2.18L309.44-2.18Q310.98-2.18 312-3.14L312-3.14L312-3.14Q313.02-4.10 313.02-5.76L313.02-5.76L313.02-5.76Q313.02-9.02 307.52-12.48L307.52-12.48L307.52-12.48Q303.04-15.42 302.02-16.58L302.02-16.58L302.02-16.58Q300.29-18.62 300.29-21.18L300.29-21.18L300.29-21.18Q300.29-23.74 301.50-26.18L301.50-26.18L301.50-26.18Q302.72-28.61 304.96-30.34L304.96-30.34L304.96-30.34Q309.63-33.92 317.76-33.92L317.76-33.92L317.76-33.92Q321.92-33.92 324.38-32.26L324.38-32.26L324.38-32.26Q326.85-30.59 326.85-27.78L326.85-27.78L326.85-27.78Q326.85-24.96 325.15-23.36L325.15-23.36L325.15-23.36Q323.46-21.76 320.38-21.76L320.38-21.76L320.38-21.76Q318.27-21.76 317.25-22.46ZM330.24-6.40L330.24-6.40L330.24-6.40Q330.24-8.13 331.14-12.48L331.14-12.48L334.53-29.76L330.75-29.76L331.01-31.68L331.01-31.68Q338.69-33.98 346.11-39.62L346.11-39.62L349.18-39.62L347.65-32.64L352.64-32.64L352.06-29.76L347.14-29.76L343.87-12.48L343.87-12.48Q343.04-8.51 343.04-7.17L343.04-7.17L343.04-7.17Q343.04-4.10 345.73-3.46L345.73-3.46L345.73-3.46Q345.09-1.28 342.78 0L342.78 0L342.78 0Q340.48 1.28 337.22 1.28L337.22 1.28L337.22 1.28Q333.95 1.28 332.10-0.77L332.10-0.77L332.10-0.77Q330.24-2.82 330.24-6.40ZM354.85-1.92L354.85-1.92L354.85-1.92Q353.34-3.58 352.67-6.21L352.67-6.21L352.67-6.21Q352-8.83 352-13.12L352-13.12L352-13.12Q352-17.41 353.47-21.31L353.47-21.31L353.47-21.31Q354.94-25.22 357.63-28.03L357.63-28.03L357.63-28.03Q363.14-33.92 372.22-33.92L372.22-33.92L372.22-33.92Q375.49-33.92 377.86-32.83L377.86-32.83L388.80-33.92L384.06-8.96L384.06-8.96Q383.87-8.19 383.87-6.78L383.87-6.78L383.87-6.78Q383.87-5.38 384.74-4.48L384.74-4.48L384.74-4.48Q385.60-3.58 386.88-3.46L386.88-3.46L386.88-3.46Q386.24-1.28 383.90 0L383.90 0L383.90 0Q381.57 1.28 378.94 1.28L378.94 1.28L378.94 1.28Q376.32 1.28 374.56 0.29L374.56 0.29L374.56 0.29Q372.80-0.70 372.29-2.37L372.29-2.37L372.29-2.37Q371.26-0.77 369.09 0.26L369.09 0.26L369.09 0.26Q366.91 1.28 364 1.28L364 1.28L364 1.28Q361.09 1.28 358.72 0.51L358.72 0.51L358.72 0.51Q356.35-0.26 354.85-1.92ZM368.35-27.90L368.35-27.90L368.35-27.90Q367.62-26.75 366.98-24.80L366.98-24.80L366.98-24.80Q366.34-22.85 365.28-17.63L365.28-17.63L365.28-17.63Q364.22-12.42 364.22-8.70L364.22-8.70L364.22-8.70Q364.22-4.99 364.80-3.90L364.80-3.90L364.80-3.90Q365.38-2.82 366.40-2.82L366.40-2.82L366.40-2.82Q368.45-2.82 369.95-4.77L369.95-4.77L369.95-4.77Q371.46-6.72 372.03-10.18L372.03-10.18L375.42-28.93L375.42-28.93Q374.08-30.08 372.51-30.08L372.51-30.08L372.51-30.08Q370.94-30.08 370.02-29.57L370.02-29.57L370.02-29.57Q369.09-29.06 368.35-27.90ZM411.39-22.46L411.39-22.46L411.39-22.46Q412.29-24.83 412.29-26.88L412.29-26.88L412.29-26.88Q412.29-30.66 409.22-30.66L409.22-30.66L409.22-30.66Q407.62-30.66 406.30-29.22L406.30-29.22L406.30-29.22Q404.99-27.78 404.99-25.98L404.99-25.98L404.99-25.98Q404.99-24.70 406.02-23.68L406.02-23.68L406.02-23.68Q407.49-22.27 411.26-19.97L411.26-19.97L411.26-19.97Q415.04-17.66 416.48-15.78L416.48-15.78L416.48-15.78Q417.92-13.89 417.92-11.30L417.92-11.30L417.92-11.30Q417.92-8.70 416.67-6.34L416.67-6.34L416.67-6.34Q415.42-3.97 413.18-2.30L413.18-2.30L413.18-2.30Q408.38 1.28 400.70 1.28L400.70 1.28L400.70 1.28Q396.54 1.28 393.34-0.90L393.34-0.90L393.34-0.90Q390.14-3.01 390.14-5.50L390.14-5.50L390.14-5.50Q390.14-8 391.97-9.47L391.97-9.47L391.97-9.47Q393.79-10.94 396.48-10.94L396.48-10.94L396.48-10.94Q399.17-10.94 400.83-9.92L400.83-9.92L400.83-9.92Q400-7.81 400-6.40L400-6.40L400-6.40Q400-2.18 403.58-2.18L403.58-2.18L403.58-2.18Q405.12-2.18 406.14-3.14L406.14-3.14L406.14-3.14Q407.17-4.10 407.17-5.76L407.17-5.76L407.17-5.76Q407.17-9.02 401.66-12.48L401.66-12.48L401.66-12.48Q397.18-15.42 396.16-16.58L396.16-16.58L396.16-16.58Q394.43-18.62 394.43-21.18L394.43-21.18L394.43-21.18Q394.43-23.74 395.65-26.18L395.65-26.18L395.65-26.18Q396.86-28.61 399.10-30.34L399.10-30.34L399.10-30.34Q403.78-33.92 411.90-33.92L411.90-33.92L411.90-33.92Q416.06-33.92 418.53-32.26L418.53-32.26L418.53-32.26Q420.99-30.59 420.99-27.78L420.99-27.78L420.99-27.78Q420.99-24.96 419.30-23.36L419.30-23.36L419.30-23.36Q417.60-21.76 414.53-21.76L414.53-21.76L414.53-21.76Q412.42-21.76 411.39-22.46Z" fill="#ccc"></path></g></g><style>text {
  font-size: 64px;
  font-family: Arial Black;
  dominant-baseline: central;
  text-anchor: middle;
}</style></svg>