<svg width="872.450146484375px" height="170.7199981689453px" xmlns="http://www.w3.org/2000/svg" viewBox="-186.22507324218748 -10.359999084472648 872.450146484375 170.7199981689453" style="background: rgba(0, 0, 0, 0);" preserveAspectRatio="xMidYMid"><defs><filter id="editing-extrusion" x="-100%" y="-100%" width="300%" height="300%"><feFlood result="color1" flood-color="#444"></feFlood><feConvolveMatrix order="8,8" divisor="1" kernelMatrix="1 0 0 0 0 0 0 0 0 1 0 0 0 0 0 0 0 0 1 0 0 0 0 0 0 0 0 1 0 0 0 0 0 0 0 0 1 0 0 0 0 0 0 0 0 1 0 0 0 0 0 0 0 0 1 0 0 0 0 0 0 0 0 1" in="SourceAlpha" result="extrude"></feConvolveMatrix><feComposite in="color1" in2="extrude" result="comp-extrude" operator="in"></feComposite><feOffset dx="4" dy="4" in="comp-extrude" result="offset-extrude"></feOffset><feMerge><feMergeNode in="offset-extrude"></feMergeNode><feMergeNode in="SourceGraphic"></feMergeNode></feMerge></filter></defs><g filter="url(#editing-extrusion)"><g transform="translate(-62.83494734764099, 110.62500190734863)"><path d="M42.18-14.63L42.18-14.63L42.18-14.63Q43.98-12.35 43.98-8.64L43.98-8.64L43.98-8.64Q43.98-3.52 40.19-0.81L40.19-0.81L40.19-0.81Q36.38 1.90 30.40 1.90L30.40 1.90L30.40 1.90Q26.98 1.90 21.75 1.14L21.75 1.14L21.75 1.14Q11.50-0.47 8.36-0.47L8.36-0.47L8.36-0.47Q5.22-0.47 3.99-0.33L3.99-0.33L3.99-0.33Q2.75-0.19 0.76 0L0.76 0L12.45-62.70L53.39-62.70L53.39-62.70Q53.39-56.91 50.59-53.87L50.59-53.87L50.59-53.87Q47.79-50.83 42.27-50.83L42.27-50.83L42.27-50.83Q36.77-50.83 31.16-53.39L31.16-53.39L28.21-36.77L45.13-36.77L45.13-36.77Q45.13-31.73 42.66-28.93L42.66-28.93L42.66-28.93Q40.19-26.13 36.05-26.13L36.05-26.13L36.05-26.13Q31.92-26.13 29.36-27.07L29.36-27.07L29.36-27.07Q26.79-28.02 26.50-28.31L26.50-28.31L23.09-10.36L23.09-10.36Q25.37-10.07 29.64-10.07L29.64-10.07L29.64-10.07Q36.95-10.07 42.18-14.63ZM75.43-5.22L75.43-5.22L75.43-5.22Q72.48 1.90 63.08 1.90L63.08 1.90L63.08 1.90Q58.33 1.90 55.29-1.43L55.29-1.43L55.29-1.43Q52.82-4.18 52.82-7.32L52.82-7.32L52.82-7.32Q52.82-14.44 56.14-30.02L56.14-30.02L63.08-66.50L82.36-68.40L73.15-20.33L73.15-20.33Q71.53-13.30 71.53-10.83L71.53-10.83L71.53-10.83Q71.53-5.42 75.43-5.22ZM106.31-5.22L106.31-5.22L106.31-5.22Q103.36 1.90 93.95 1.90L93.95 1.90L93.95 1.90Q89.11 1.90 86.07-1.43L86.07-1.43L86.07-1.43Q83.50-4.37 83.50-7.32L83.50-7.32L83.50-7.32Q83.50-15.01 87.02-30.02L87.02-30.02L90.53-48.45L109.82-50.35L104.03-20.33L104.03-20.33Q102.41-13.30 102.41-10.83L102.41-10.83L102.41-10.83Q102.41-5.42 106.31-5.22ZM92.25-61.66L92.25-61.66L92.25-61.66Q92.25-65.36 95.33-67.36L95.33-67.36L95.33-67.36Q98.42-69.35 102.89-69.35L102.89-69.35L102.89-69.35Q107.35-69.35 110.06-67.36L110.06-67.36L110.06-67.36Q112.77-65.36 112.77-61.66L112.77-61.66L112.77-61.66Q112.77-57.95 109.77-56.05L109.77-56.05L109.77-56.05Q106.78-54.15 102.31-54.15L102.31-54.15L102.31-54.15Q97.85-54.15 95.05-56.05L95.05-56.05L95.05-56.05Q92.25-57.95 92.25-61.66ZM115.90-9.50L115.90-9.50L115.90-9.50Q115.90-12.06 117.23-18.52L117.23-18.52L122.27-44.17L116.66-44.17L117.04-47.02L117.04-47.02Q128.44-50.45 139.46-58.80L139.46-58.80L144.02-58.80L141.74-48.45L149.15-48.45L148.30-44.17L140.98-44.17L136.13-18.52L136.13-18.52Q134.90-12.63 134.90-10.64L134.90-10.64L134.90-10.64Q134.90-6.08 138.89-5.13L138.89-5.13L138.89-5.13Q137.94-1.90 134.52 0L134.52 0L134.52 0Q131.10 1.90 126.25 1.90L126.25 1.90L126.25 1.90Q121.41 1.90 118.66-1.14L118.66-1.14L118.66-1.14Q115.90-4.18 115.90-9.50ZM186.77-16.05L186.77-16.05L186.77-16.05Q189.15-14.44 189.15-10.88L189.15-10.88L189.15-10.88Q189.15-7.32 187.34-5.04L187.34-5.04L187.34-5.04Q185.54-2.75 182.59-1.24L182.59-1.24L182.59-1.24Q176.51 1.90 169.96 1.90L169.96 1.90L169.96 1.90Q163.40 1.90 159.55 0.47L159.55 0.47L159.55 0.47Q155.71-0.95 153.14-3.61L153.14-3.61L153.14-3.61Q148.11-8.64 148.11-17.86L148.11-17.86L148.11-17.86Q148.11-32.20 155.90-40.95L155.90-40.95L155.90-40.95Q164.25-50.35 178.79-50.35L178.79-50.35L178.79-50.35Q187.81-50.35 192.28-46.55L192.28-46.55L192.28-46.55Q195.61-43.70 195.61-39.05L195.61-39.05L195.61-39.05Q195.61-22.32 166.73-22.32L166.73-22.32L166.73-22.32Q166.34-19.86 166.34-17.77L166.34-17.77L166.34-17.77Q166.34-13.39 168.29-11.73L168.29-11.73L168.29-11.73Q170.24-10.07 173.85-10.07L173.85-10.07L173.85-10.07Q177.46-10.07 181.31-11.73L181.31-11.73L181.31-11.73Q185.16-13.39 186.77-16.05ZM167.39-26.41L167.39-26.41L167.39-26.41Q174.14-26.41 178.03-30.59L178.03-30.59L178.03-30.59Q181.93-34.58 181.93-40.95L181.93-40.95L181.93-40.95Q181.93-43.13 181.12-44.32L181.12-44.32L181.12-44.32Q180.31-45.51 178.69-45.51L178.69-45.51L178.69-45.51Q177.08-45.51 175.70-44.89L175.70-44.89L175.70-44.89Q174.33-44.27 172.90-42.18L172.90-42.18L172.90-42.18Q169.39-37.43 167.39-26.41ZM258.97-14.63L258.97-14.63L258.97-14.63Q260.77-12.35 260.77-8.64L260.77-8.64L260.77-8.64Q260.77-3.52 256.98-0.81L256.98-0.81L256.98-0.81Q253.17 1.90 247.19 1.90L247.19 1.90L247.19 1.90Q243.77 1.90 238.54 1.14L238.54 1.14L238.54 1.14Q228.28-0.47 225.15-0.47L225.15-0.47L225.15-0.47Q222.01-0.47 220.78-0.33L220.78-0.33L220.78-0.33Q219.54-0.19 217.55 0L217.55 0L229.23-62.70L270.18-62.70L270.18-62.70Q270.18-56.91 267.38-53.87L267.38-53.87L267.38-53.87Q264.57-50.83 259.06-50.83L259.06-50.83L259.06-50.83Q253.56-50.83 247.95-53.39L247.95-53.39L245.00-36.77L261.91-36.77L261.91-36.77Q261.91-31.73 259.44-28.93L259.44-28.93L259.44-28.93Q256.98-26.13 252.84-26.13L252.84-26.13L252.84-26.13Q248.71-26.13 246.14-27.07L246.14-27.07L246.14-27.07Q243.58-28.02 243.29-28.31L243.29-28.31L239.88-10.36L239.88-10.36Q242.16-10.07 246.43-10.07L246.43-10.07L246.43-10.07Q253.75-10.07 258.97-14.63ZM297.92-33.34L297.92-33.34L297.92-33.34Q299.25-36.86 299.25-39.90L299.25-39.90L299.25-39.90Q299.25-45.51 294.69-45.51L294.69-45.51L294.69-45.51Q292.31-45.51 290.37-43.37L290.37-43.37L290.37-43.37Q288.42-41.23 288.42-38.57L288.42-38.57L288.42-38.57Q288.42-36.67 289.94-35.15L289.94-35.15L289.94-35.15Q292.13-33.06 297.73-29.64L297.73-29.64L297.73-29.64Q303.33-26.22 305.47-23.42L305.47-23.42L305.47-23.42Q307.61-20.62 307.61-16.77L307.61-16.77L307.61-16.77Q307.61-12.92 305.76-9.40L305.76-9.40L305.76-9.40Q303.90-5.89 300.58-3.42L300.58-3.42L300.58-3.42Q293.45 1.90 282.05 1.90L282.05 1.90L282.05 1.90Q275.88 1.90 271.13-1.33L271.13-1.33L271.13-1.33Q266.38-4.46 266.38-8.17L266.38-8.17L266.38-8.17Q266.38-11.88 269.09-14.06L269.09-14.06L269.09-14.06Q271.79-16.25 275.78-16.25L275.78-16.25L275.78-16.25Q279.77-16.25 282.25-14.72L282.25-14.72L282.25-14.72Q281.01-11.59 281.01-9.50L281.01-9.50L281.01-9.50Q281.01-3.23 286.33-3.23L286.33-3.23L286.33-3.23Q288.61-3.23 290.13-4.66L290.13-4.66L290.13-4.66Q291.65-6.08 291.65-8.55L291.65-8.55L291.65-8.55Q291.65-13.39 283.48-18.52L283.48-18.52L283.48-18.52Q276.83-22.89 275.31-24.61L275.31-24.61L275.31-24.61Q272.75-27.64 272.75-31.45L272.75-31.45L272.75-31.45Q272.75-35.24 274.55-38.86L274.55-38.86L274.55-38.86Q276.35-42.47 279.68-45.03L279.68-45.03L279.68-45.03Q286.61-50.35 298.68-50.35L298.68-50.35L298.68-50.35Q304.85-50.35 308.51-47.88L308.51-47.88L308.51-47.88Q312.17-45.41 312.17-41.23L312.17-41.23L312.17-41.23Q312.17-37.05 309.65-34.67L309.65-34.67L309.65-34.67Q307.13-32.30 302.57-32.30L302.57-32.30L302.57-32.30Q299.44-32.30 297.92-33.34ZM317.20-9.50L317.20-9.50L317.20-9.50Q317.20-12.06 318.53-18.52L318.53-18.52L323.57-44.17L317.96-44.17L318.34-47.02L318.34-47.02Q329.75-50.45 340.76-58.80L340.76-58.80L345.32-58.80L343.05-48.45L350.45-48.45L349.60-44.17L342.28-44.17L337.44-18.52L337.44-18.52Q336.20-12.63 336.20-10.64L336.20-10.64L336.20-10.64Q336.20-6.08 340.19-5.13L340.19-5.13L340.19-5.13Q339.25-1.90 335.82 0L335.82 0L335.82 0Q332.40 1.90 327.56 1.90L327.56 1.90L327.56 1.90Q322.71 1.90 319.96-1.14L319.96-1.14L319.96-1.14Q317.20-4.18 317.20-9.50ZM372.78-5.22L372.78-5.22L372.78-5.22Q369.84 1.90 360.43 1.90L360.43 1.90L360.43 1.90Q355.59 1.90 352.55-1.43L352.55-1.43L352.55-1.43Q349.98-4.37 349.98-7.32L349.98-7.32L349.98-7.32Q349.98-15.01 353.50-30.02L353.50-30.02L357.01-48.45L376.30-50.35L370.50-20.33L370.50-20.33Q368.88-13.30 368.88-10.83L368.88-10.83L368.88-10.83Q368.88-5.42 372.78-5.22ZM358.72-61.66L358.72-61.66L358.72-61.66Q358.72-65.36 361.81-67.36L361.81-67.36L361.81-67.36Q364.89-69.35 369.36-69.35L369.36-69.35L369.36-69.35Q373.82-69.35 376.53-67.36L376.53-67.36L376.53-67.36Q379.24-65.36 379.24-61.66L379.24-61.66L379.24-61.66Q379.24-57.95 376.25-56.05L376.25-56.05L376.25-56.05Q373.25-54.15 368.79-54.15L368.79-54.15L368.79-54.15Q364.32-54.15 361.52-56.05L361.52-56.05L361.52-56.05Q358.72-57.95 358.72-61.66ZM403.56-5.22L403.56-5.22L403.56-5.22Q400.62 1.90 391.21 1.90L391.21 1.90L391.21 1.90Q386.46 1.90 383.42-1.43L383.42-1.43L383.42-1.43Q380.95-4.18 380.95-7.32L380.95-7.32L380.95-7.32Q380.95-14.44 384.28-30.02L384.28-30.02L391.21-66.50L410.50-68.40L401.28-20.33L401.28-20.33Q399.67-13.30 399.67-10.83L399.67-10.83L399.67-10.83Q399.67-5.42 403.56-5.22ZM434.44-5.22L434.44-5.22L434.44-5.22Q431.49 1.90 422.08 1.90L422.08 1.90L422.08 1.90Q417.24 1.90 414.20-1.43L414.20-1.43L414.20-1.43Q411.63-4.37 411.63-7.32L411.63-7.32L411.63-7.32Q411.63-15.01 415.15-30.02L415.15-30.02L418.66-48.45L437.95-50.35L432.15-20.33L432.15-20.33Q430.54-13.30 430.54-10.83L430.54-10.83L430.54-10.83Q430.54-5.42 434.44-5.22ZM420.38-61.66L420.38-61.66L420.38-61.66Q420.38-65.36 423.46-67.36L423.46-67.36L423.46-67.36Q426.55-69.35 431.01-69.35L431.01-69.35L431.01-69.35Q435.48-69.35 438.19-67.36L438.19-67.36L438.19-67.36Q440.89-65.36 440.89-61.66L440.89-61.66L440.89-61.66Q440.89-57.95 437.90-56.05L437.90-56.05L437.90-56.05Q434.91-54.15 430.44-54.15L430.44-54.15L430.44-54.15Q425.98-54.15 423.18-56.05L423.18-56.05L423.18-56.05Q420.38-57.95 420.38-61.66ZM470.91-33.34L470.91-33.34L470.91-33.34Q472.25-36.86 472.25-39.90L472.25-39.90L472.25-39.90Q472.25-45.51 467.69-45.51L467.69-45.51L467.69-45.51Q465.31-45.51 463.36-43.37L463.36-43.37L463.36-43.37Q461.41-41.23 461.41-38.57L461.41-38.57L461.41-38.57Q461.41-36.67 462.94-35.15L462.94-35.15L462.94-35.15Q465.12-33.06 470.72-29.64L470.72-29.64L470.72-29.64Q476.33-26.22 478.47-23.42L478.47-23.42L478.47-23.42Q480.60-20.62 480.60-16.77L480.60-16.77L480.60-16.77Q480.60-12.92 478.75-9.40L478.75-9.40L478.75-9.40Q476.90-5.89 473.57-3.42L473.57-3.42L473.57-3.42Q466.45 1.90 455.05 1.90L455.05 1.90L455.05 1.90Q448.88 1.90 444.13-1.33L444.13-1.33L444.13-1.33Q439.38-4.46 439.38-8.17L439.38-8.17L439.38-8.17Q439.38-11.88 442.08-14.06L442.08-14.06L442.08-14.06Q444.79-16.25 448.78-16.25L448.78-16.25L448.78-16.25Q452.77-16.25 455.24-14.72L455.24-14.72L455.24-14.72Q454.00-11.59 454.00-9.50L454.00-9.50L454.00-9.50Q454.00-3.23 459.32-3.23L459.32-3.23L459.32-3.23Q461.60-3.23 463.13-4.66L463.13-4.66L463.13-4.66Q464.64-6.08 464.64-8.55L464.64-8.55L464.64-8.55Q464.64-13.39 456.47-18.52L456.47-18.52L456.47-18.52Q449.82-22.89 448.31-24.61L448.31-24.61L448.31-24.61Q445.74-27.64 445.74-31.45L445.74-31.45L445.74-31.45Q445.74-35.24 447.54-38.86L447.54-38.86L447.54-38.86Q449.35-42.47 452.67-45.03L452.67-45.03L452.67-45.03Q459.61-50.35 471.67-50.35L471.67-50.35L471.67-50.35Q477.85-50.35 481.51-47.88L481.51-47.88L481.51-47.88Q485.16-45.41 485.16-41.23L485.16-41.23L485.16-41.23Q485.16-37.05 482.65-34.67L482.65-34.67L482.65-34.67Q480.13-32.30 475.57-32.30L475.57-32.30L475.57-32.30Q472.44-32.30 470.91-33.34ZM490.20-9.50L490.20-9.50L490.20-9.50Q490.20-12.06 491.53-18.52L491.53-18.52L496.56-44.17L490.96-44.17L491.34-47.02L491.34-47.02Q502.74-50.45 513.76-58.80L513.76-58.80L518.32-58.80L516.04-48.45L523.45-48.45L522.60-44.17L515.28-44.17L510.44-18.52L510.44-18.52Q509.20-12.63 509.20-10.64L509.20-10.64L509.20-10.64Q509.20-6.08 513.19-5.13L513.19-5.13L513.19-5.13Q512.24-1.90 508.82 0L508.82 0L508.82 0Q505.40 1.90 500.56 1.90L500.56 1.90L500.56 1.90Q495.71 1.90 492.95-1.14L492.95-1.14L492.95-1.14Q490.20-4.18 490.20-9.50ZM526.73-2.85L526.73-2.85L526.73-2.85Q524.50-5.32 523.50-9.21L523.50-9.21L523.50-9.21Q522.50-13.11 522.50-19.48L522.50-19.48L522.50-19.48Q522.50-25.84 524.69-31.64L524.69-31.64L524.69-31.64Q526.87-37.43 530.86-41.61L530.86-41.61L530.86-41.61Q539.03-50.35 552.52-50.35L552.52-50.35L552.52-50.35Q557.37-50.35 560.88-48.73L560.88-48.73L577.13-50.35L570.10-13.30L570.10-13.30Q569.81-12.16 569.81-10.07L569.81-10.07L569.81-10.07Q569.81-7.98 571.09-6.65L571.09-6.65L571.09-6.65Q572.38-5.32 574.27-5.13L574.27-5.13L574.27-5.13Q573.33-1.90 569.86 0L569.86 0L569.86 0Q566.39 1.90 562.50 1.90L562.50 1.90L562.50 1.90Q558.60 1.90 555.99 0.43L555.99 0.43L555.99 0.43Q553.38-1.04 552.62-3.52L552.62-3.52L552.62-3.52Q551.10-1.14 547.87 0.38L547.87 0.38L547.87 0.38Q544.63 1.90 540.31 1.90L540.31 1.90L540.31 1.90Q535.99 1.90 532.48 0.76L532.48 0.76L532.48 0.76Q528.96-0.38 526.73-2.85ZM546.77-41.42L546.77-41.42L546.77-41.42Q545.68-39.71 544.73-36.81L544.73-36.81L544.73-36.81Q543.78-33.91 542.21-26.17L542.21-26.17L542.21-26.17Q540.64-18.43 540.64-12.92L540.64-12.92L540.64-12.92Q540.64-7.41 541.50-5.79L541.50-5.79L541.50-5.79Q542.36-4.18 543.88-4.18L543.88-4.18L543.88-4.18Q546.91-4.18 549.15-7.08L549.15-7.08L549.15-7.08Q551.38-9.97 552.24-15.11L552.24-15.11L557.27-42.94L557.27-42.94Q555.27-44.65 552.95-44.65L552.95-44.65L552.95-44.65Q550.62-44.65 549.24-43.89L549.24-43.89L549.24-43.89Q547.87-43.13 546.77-41.42ZM610.66-33.34L610.66-33.34L610.66-33.34Q611.99-36.86 611.99-39.90L611.99-39.90L611.99-39.90Q611.99-45.51 607.43-45.51L607.43-45.51L607.43-45.51Q605.05-45.51 603.11-43.37L603.11-43.37L603.11-43.37Q601.16-41.23 601.16-38.57L601.16-38.57L601.16-38.57Q601.16-36.67 602.68-35.15L602.68-35.15L602.68-35.15Q604.87-33.06 610.47-29.64L610.47-29.64L610.47-29.64Q616.08-26.22 618.21-23.42L618.21-23.42L618.21-23.42Q620.35-20.62 620.35-16.77L620.35-16.77L620.35-16.77Q620.35-12.92 618.50-9.40L618.50-9.40L618.50-9.40Q616.64-5.89 613.32-3.42L613.32-3.42L613.32-3.42Q606.19 1.90 594.79 1.90L594.79 1.90L594.79 1.90Q588.62 1.90 583.87-1.33L583.87-1.33L583.87-1.33Q579.12-4.46 579.12-8.17L579.12-8.17L579.12-8.17Q579.12-11.88 581.83-14.06L581.83-14.06L581.83-14.06Q584.53-16.25 588.52-16.25L588.52-16.25L588.52-16.25Q592.51-16.25 594.99-14.72L594.99-14.72L594.99-14.72Q593.75-11.59 593.75-9.50L593.75-9.50L593.75-9.50Q593.75-3.23 599.07-3.23L599.07-3.23L599.07-3.23Q601.35-3.23 602.87-4.66L602.87-4.66L602.87-4.66Q604.39-6.08 604.39-8.55L604.39-8.55L604.39-8.55Q604.39-13.39 596.22-18.52L596.22-18.52L596.22-18.52Q589.57-22.89 588.05-24.61L588.05-24.61L588.05-24.61Q585.49-27.64 585.49-31.45L585.49-31.45L585.49-31.45Q585.49-35.24 587.29-38.86L587.29-38.86L587.29-38.86Q589.10-42.47 592.42-45.03L592.42-45.03L592.42-45.03Q599.36-50.35 611.42-50.35L611.42-50.35L611.42-50.35Q617.60-50.35 621.25-47.88L621.25-47.88L621.25-47.88Q624.91-45.41 624.91-41.23L624.91-41.23L624.91-41.23Q624.91-37.05 622.39-34.67L622.39-34.67L622.39-34.67Q619.88-32.30 615.31-32.30L615.31-32.30L615.31-32.30Q612.18-32.30 610.66-33.34Z" fill="#ccc"></path></g></g><style>text {
  font-size: 64px;
  font-family: Arial Black;
  dominant-baseline: central;
  text-anchor: middle;
}</style></svg>